<svg width="511" height="509" viewBox="0 0 511 509" fill="none" xmlns="http://www.w3.org/2000/svg">
<path d="M67.6849 262.49C50.6425 160.26 91.754 61.7347 166.964 0.0592058C81.9946 60.4446 34.0311 165.326 52.2147 274.372C58.6419 312.916 72.7232 348.297 92.6438 379.236L0.399581 368.449L100.865 392.699L53.3415 427.155L103.859 397.784L86.8842 503.672L111.852 405.461C118.82 413.922 126.198 421.975 134.068 429.519L141.737 436.556C203.341 491.479 288.663 519.049 376.794 504.376C427.632 495.903 472.975 474.418 510.06 443.992C476.083 468.142 436.232 485.186 392.302 492.508C291.967 509.217 195.234 471.19 133.038 400.409L221.368 411.729L122.253 387.333C121.382 386.189 120.525 385.007 119.654 383.863L166.035 353.648L116.945 380.222C116.554 379.645 116.097 379.13 115.669 378.539L133.956 275.514L109.772 369.87C88.9628 338.299 74.2055 302.062 67.609 262.462L67.6849 262.49Z" fill="#1D1D1B"/>
</svg>
